<svg version="1" xmlns="http://www.w3.org/2000/svg" width="682.667" height="682.667" viewBox="0 0 512.000000 512.000000"><path d="M225 70.5c-4.7.8-10.5 1.7-13 2-2.5.3-12.1 1.7-21.4 3.1-9.4 1.3-18.8 2.7-21 2.9-4.5.6-9.2 1.4-11.8 2.1-5.5 1.6-3.8 19.7 3.1 31.8l2.8 5.1-4.3 7.5c-4.8 8.1-9.5 19.6-11.9 28.7-1.4 5.2-1.8 7.6-3 16.8-.2 1.6-.4 11.5-.4 22l-.1 19-2.9 1.9c-1.6 1.1-4 3.8-5.5 5.9-2 3.2-2.4 4.8-2 8.1 1.3 9.2 9.3 19.3 17.4 21.7l3.8 1.1.7 7.1c1.5 15.4 9.4 35.5 19 48.4 5.1 6.8 18.9 19.8 25.8 24.2l6.7 4.4-10.7 5.3c-6 2.9-14.4 8.1-18.8 11.4-4.4 3.3-8.7 6-9.5 6.1-.8 0-5.8.1-11.1.2-12.5.3-13.2.9-12.4 9.6.3 3.6.8 8.7 1.1 11.3.5 4.3.1 5.4-4.1 12.4-6.1 10-10.8 21.2-13.9 32.7-4 14.8-4.7 20.9-4.9 42.3-.1 14.2.1 16.6 1.6 18.1 1.6 1.6 10.6 1.7 131.7 1.7 119.7 0 130.1-.1 131.7-1.6 2.8-2.9 2.1-36.1-1.2-52.1-3.1-15.1-9-30-16.8-42.4-3.4-5.5-3.8-6.8-3.3-10.5 2.8-21.2 2.5-21.6-12.4-21.4-10 .1-10.3.1-14.9-3.1-11.1-8-16.2-11.1-24.9-15.4l-9.4-4.6 6.9-4.4c9.1-5.9 23-19.7 28.8-28.7 9.6-15 16-33.7 16.4-48.3.1-2.1.8-2.8 4.2-3.9 8.6-2.9 16.4-12.8 17.2-22.1.3-3.5-.1-5.1-2.2-8.1-1.4-2-3.8-4.4-5.3-5.5l-2.8-1.8-.1-18.5c-.2-26.9-1-33.2-6.2-48-13.4-38.3-45.7-66.5-84.4-73.6-1.3-.2-3.5-.6-5-.9-6.8-1.4-39-1.4-47.3 0z"/></svg>